<svg width="98" height="29" viewBox="0 0 98 29" fill="none" xmlns="http://www.w3.org/2000/svg">
<g clip-path="url(#clip0)">
<path d="M93.3995 0.226562H4.60136C2.18738 0.226562 0.230469 2.15384 0.230469 4.53125V24.4687C0.230469 26.8462 2.18738 28.7734 4.60136 28.7734H93.3995C95.8135 28.7734 97.7704 26.8462 97.7704 24.4687V4.53125C97.7704 2.15384 95.8135 0.226562 93.3995 0.226562Z" stroke="#303030"/>
<path d="M32.8401 8.2065L32.9985 5.71744H34.8586V9.43116H32.4997V9.40461C32.739 9.11919 32.8064 8.75411 32.8401 8.2065ZM31.9505 9.9688H35.509V10.9147H36.0718V9.43116H35.4652V5.17981H32.4559L32.2706 8.19323C32.2335 8.82049 32.1021 9.24529 31.7483 9.43116H31.3877V10.9147H31.9505V9.9688ZM38.693 10.0285C39.6601 10.0285 40.3138 9.34154 40.3138 8.24303C40.3138 7.14121 39.6601 6.45753 38.693 6.45753C37.7225 6.45753 37.0687 7.14121 37.0687 8.24303C37.0687 9.34154 37.7225 10.0285 38.693 10.0285ZM38.693 9.52075C38.0729 9.52075 37.6652 9.05611 37.6652 8.24303C37.6652 7.42994 38.0729 6.9653 38.693 6.9653C39.313 6.9653 39.7174 7.42994 39.7174 8.24303C39.7174 9.05611 39.313 9.52075 38.693 9.52075ZM44.438 7.64898C44.3638 7.02833 43.8415 6.45753 42.9654 6.45753C41.9982 6.45753 41.3546 7.15448 41.3546 8.24303C41.3546 9.35481 42.0016 10.0285 42.9721 10.0285C43.7674 10.0285 44.3537 9.54399 44.4447 8.85701H43.8685C43.7674 9.27185 43.454 9.52075 42.9755 9.52075C42.3689 9.52075 41.951 9.04619 41.951 8.24303C41.951 7.4598 42.3622 6.9653 42.9687 6.9653C43.4843 6.9653 43.7809 7.27393 43.8651 7.64898H44.438ZM48.0971 6.51725H45.2529V6.99186H46.3818V9.9688H46.968V6.99186H48.0971V6.51725ZM49.4884 11.2598C50.1219 11.2598 50.4118 11.0176 50.7113 10.2111L52.0898 6.51725H51.4732L50.5024 9.39133H50.4923L49.522 6.51725H48.8953L50.1891 9.97211L50.1081 10.2144C49.9733 10.616 49.7916 10.772 49.4645 10.772C49.3904 10.772 49.2997 10.7686 49.2353 10.7553V11.2399C49.2997 11.2532 49.4175 11.2598 49.4884 11.2598ZM55.4356 9.9688H56.0254V6.51725H53.1678V9.9688H53.7539V6.99186H55.4356V9.9688ZM59.7011 9.9688H60.2877V6.51725H59.7011V7.94102H57.9859V6.51725H57.3997V9.9688H57.9859V8.41562H59.7011V9.9688ZM63.121 10.0285C64.0881 10.0285 64.7419 9.34154 64.7419 8.24303C64.7419 7.14121 64.0881 6.45753 63.121 6.45753C62.1506 6.45753 61.4968 7.14121 61.4968 8.24303C61.4968 9.34154 62.1506 10.0285 63.121 10.0285ZM63.121 9.52075C62.5008 9.52075 62.0931 9.05611 62.0931 8.24303C62.0931 7.42994 62.5008 6.9653 63.121 6.9653C63.7412 6.9653 64.1456 7.42994 64.1456 8.24303C64.1456 9.05611 63.7412 9.52075 63.121 9.52075ZM69.4284 9.9688C70.1728 9.9688 70.6311 9.58713 70.6311 8.9765C70.6311 8.555 70.3412 8.24633 69.9 8.18661V8.16006C70.2234 8.09368 70.476 7.76511 70.476 7.41C70.476 6.85578 70.0753 6.51725 69.4183 6.51725H67.9184V9.9688H69.4284ZM68.505 6.9852H69.3304C69.698 6.9852 69.8968 7.15779 69.8968 7.46977C69.8968 7.80494 69.6842 7.96757 69.243 7.96757H68.505V6.9852ZM68.505 8.43221H69.2899C69.8024 8.43221 70.0481 8.60475 70.0481 8.96322C70.0481 9.31168 69.819 9.50086 69.3943 9.50086H68.505V8.43221Z" fill="#303030"/>
<path d="M38.2772 23.1094H39.8213L36.427 13.8506H34.8503L31.4561 23.1094H32.974L33.834 20.607H37.4173L38.2772 23.1094ZM35.6061 15.3905H35.6452L37.0459 19.4521H34.2054L35.6061 15.3905ZM44.258 16.2503C43.2677 16.2503 42.4794 16.7444 42.0755 17.5208H42.0494V16.3594H40.6878V25.3422H42.095V21.9994H42.1276C42.5185 22.75 43.3003 23.2249 44.2841 23.2249C46.004 23.2249 47.1442 21.871 47.1442 19.7344C47.1442 17.5977 45.9975 16.2503 44.258 16.2503ZM43.8866 22.0507C42.8052 22.0507 42.0885 21.1395 42.0885 19.7344C42.0885 18.342 42.8117 17.4181 43.8866 17.4181C45.0007 17.4181 45.6978 18.3228 45.6978 19.7344C45.6978 21.1524 45.0007 22.0507 43.8866 22.0507ZM51.8022 16.2503C50.8121 16.2503 50.024 16.7444 49.62 17.5208H49.5938V16.3594H48.2324V25.3422H49.6393V21.9994H49.672C50.0631 22.75 50.8448 23.2249 51.8285 23.2249C53.5483 23.2249 54.6884 21.871 54.6884 19.7344C54.6884 17.5977 53.5418 16.2503 51.8022 16.2503ZM51.4309 22.0507C50.3497 22.0507 49.6329 21.1395 49.6329 19.7344C49.6329 18.342 50.3562 17.4181 51.4309 17.4181C52.5453 17.4181 53.2423 18.3228 53.2423 19.7344C53.2423 21.1524 52.5453 22.0507 51.4309 22.0507ZM58.2325 20.5685C58.3241 22.2175 59.7375 23.2633 61.8617 23.2633C64.0504 23.2633 65.4449 22.1662 65.4449 20.4209C65.4449 19.0735 64.637 18.2971 62.6692 17.8865L61.64 17.6747C60.4216 17.4181 59.9395 16.9689 59.9395 16.2952C59.9395 15.4483 60.7474 14.9221 61.8484 14.9221C62.9885 14.9221 63.7638 15.4932 63.8553 16.4236H65.2687C65.2232 14.8067 63.8618 13.6967 61.8682 13.6967C59.8681 13.6967 58.4543 14.7874 58.4543 16.3722C58.4543 17.7068 59.3077 18.5666 61.1904 18.958L62.2132 19.1698C63.4707 19.4392 63.9657 19.8884 63.9657 20.607C63.9657 21.4347 63.1123 22.0379 61.9202 22.0379C60.6692 22.0379 59.7835 21.4861 59.6528 20.5685H58.2325ZM67.0019 14.7617V16.3594H66.0049V17.4566H67.0019V21.332C67.0019 22.6345 67.5425 23.1543 68.9301 23.1543C69.243 23.1543 69.5559 23.1286 69.7123 23.0901V21.9929C69.6207 22.0122 69.393 22.025 69.2495 22.025C68.6762 22.025 68.4158 21.762 68.4158 21.1781V17.4566H69.7187V16.3594H68.4158V14.7617H67.0019ZM73.6535 23.2377C75.6148 23.2377 76.9045 21.9095 76.9045 19.7344C76.9045 17.5657 75.6084 16.2375 73.6535 16.2375C71.699 16.2375 70.4029 17.5657 70.4029 19.7344C70.4029 21.9095 71.6925 23.2377 73.6535 23.2377ZM73.6535 22.0956C72.5525 22.0956 71.8361 21.2358 71.8361 19.7344C71.8361 18.2394 72.5525 17.3796 73.6535 17.3796C74.7549 17.3796 75.4713 18.2394 75.4713 19.7344C75.4713 21.2358 74.7614 22.0956 73.6535 22.0956ZM77.9926 23.1094H79.4V19.0671C79.4 18.111 79.9604 17.5143 80.8659 17.5143C81.1397 17.5143 81.3872 17.5464 81.4976 17.5914V16.3017C81.3936 16.2824 81.2174 16.2503 81.0154 16.2503C80.208 16.2503 79.5956 16.7187 79.3674 17.5079H79.3347V16.3594H77.9926V23.1094ZM84.9377 17.3539C85.9214 17.3539 86.5858 18.079 86.6184 19.112H83.1917C83.2634 18.0918 83.954 17.3539 84.9377 17.3539ZM86.612 21.1267C86.4229 21.717 85.8303 22.1149 85.0288 22.1149C83.9016 22.1149 83.1852 21.3385 83.1852 20.1643V20.0809H88.0259V19.6061C88.0259 17.5593 86.8402 16.2375 84.9377 16.2375C83.0026 16.2375 81.7649 17.6491 81.7649 19.7665C81.7649 21.8967 82.9832 23.2377 84.9962 23.2377C86.5665 23.2377 87.7521 22.3587 87.9477 21.1267H86.612Z" fill="#303030"/>
<path fill-rule="evenodd" clip-rule="evenodd" d="M19.4717 4.98438C18.4985 5.02448 17.3194 5.62088 16.6215 6.42273C15.9941 7.13482 15.4465 8.27125 15.5941 9.36093C16.6806 9.44439 17.7878 8.81944 18.464 8.01723C19.139 7.21352 19.596 6.0982 19.4717 4.98438ZM19.1966 23.9484C20.5152 23.9243 21.3503 22.7738 22.1576 21.6162C23.0423 20.3482 23.433 19.1188 23.4912 18.9355C23.4944 18.9253 23.4966 18.9183 23.4979 18.9148C23.4972 18.9145 23.4956 18.9138 23.493 18.9128C23.3662 18.8622 20.9256 17.8887 20.9013 15.0748C20.8775 12.7511 22.7664 11.5951 22.9743 11.4678C22.9816 11.4634 22.9868 11.4603 22.9898 11.4583C21.8529 9.82715 20.0826 9.60349 19.4518 9.57793C18.5304 9.48649 17.6365 9.83204 16.9062 10.1143C16.442 10.2938 16.0439 10.4477 15.7468 10.4477C15.4161 10.4477 15.0071 10.2884 14.5481 10.1097C13.9473 9.87577 13.2609 9.60852 12.5522 9.62129C10.9109 9.6454 9.39614 10.5585 8.55086 12.0016C6.84382 14.9076 8.11308 19.2136 9.77609 21.5699C10.5901 22.7223 11.558 24.0192 12.8309 23.9725C13.3993 23.9501 13.8038 23.7812 14.2221 23.6064C14.7055 23.4044 15.2075 23.1948 16.0022 23.1948C16.759 23.1948 17.2378 23.398 17.6982 23.5934C18.1386 23.7804 18.5622 23.9602 19.1966 23.9484Z" fill="#FFD362"/>
</g>
<defs>
<clipPath id="clip0">
<rect width="98" height="29" fill="white"/>
</clipPath>
</defs>
</svg>
