<svg width="26" height="26" viewBox="0 0 26 26" fill="none" xmlns="http://www.w3.org/2000/svg">
<path d="M22.4779 17.375V18C22.4779 18.1726 21.8716 18.3125 21.1237 18.3125H4.8737C4.12582 18.3125 3.51953 18.1726 3.51953 18V17.375C3.51953 17.2024 4.12582 17.0625 4.8737 17.0625L12.9987 17.0625L21.1237 17.0625C21.8716 17.0625 22.4779 17.2024 22.4779 17.375Z" fill="#FFD362"/>
<path d="M22.4818 19.625V20.25C22.4818 20.4226 21.8755 20.5625 21.1276 20.5625H4.8776C4.12972 20.5625 3.52344 20.4226 3.52344 20.25V19.625C3.52344 19.4524 4.12972 19.3125 4.8776 19.3125L13.0026 19.3125L21.1276 19.3125C21.8755 19.3125 22.4818 19.4524 22.4818 19.625Z" fill="#FFD362"/>
<path d="M22.4818 21.875V22.5C22.4818 22.6726 21.8755 22.8125 21.1276 22.8125H4.8776C4.12972 22.8125 3.52344 22.6726 3.52344 22.5V21.875C3.52344 21.7024 4.12972 21.5625 4.8776 21.5625L13.0026 21.5625L21.1276 21.5625C21.8755 21.5625 22.4818 21.7024 22.4818 21.875Z" fill="#FFD362"/>
<path d="M21.7279 6.49998V12.4583C21.7279 13.1991 21.5899 13.8335 21.3985 14.2545C21.2471 14.5875 21.1276 14.6677 21.0987 14.685L20.9439 14.6769C20.8016 14.6694 20.5951 14.6588 20.3374 14.6461C19.822 14.6206 19.1018 14.5867 18.2821 14.5527C16.6456 14.4849 14.6015 14.4166 12.9987 14.4166C11.3959 14.4166 9.35182 14.4849 7.71528 14.5527C6.89555 14.5867 6.17535 14.6206 5.66001 14.6461C5.40231 14.6588 5.19576 14.6694 5.05351 14.6769L4.89871 14.685C4.86981 14.6677 4.75028 14.5875 4.59893 14.2545C4.40754 13.8335 4.26953 13.1991 4.26953 12.4583V6.49998C4.26953 5.75917 4.40754 5.12481 4.59893 4.70375C4.75025 4.37086 4.86976 4.29059 4.89869 4.27325L5.05275 4.28142C5.1946 4.28886 5.4006 4.29948 5.65769 4.31221C6.17181 4.33768 6.89054 4.37163 7.70931 4.40559C9.34395 4.47338 11.388 4.54165 12.9987 4.54165C14.6094 4.54165 16.6534 4.47338 18.2881 4.40559C19.1069 4.37163 19.8256 4.33768 20.3397 4.31221C20.5968 4.29948 20.8028 4.28886 20.9446 4.28142L21.0987 4.27325C21.1276 4.29059 21.2471 4.37086 21.3985 4.70375C21.5899 5.12481 21.7279 5.75917 21.7279 6.49998Z" stroke="#FFD362" stroke-width="1.5"/>
</svg>
