<svg width="212" height="56" viewBox="0 0 212 56" fill="none" xmlns="http://www.w3.org/2000/svg">
<path d="M47.2215 55.7095H43.2832V44.6222H41.1107V41.1281H49.4786V44.6222H47.2215V55.7095Z" fill="#373435"/>
<path d="M67.6036 55.7095H63.6653V49.8448H61.7862V55.7095H57.8479V41.1281H61.7862V46.2845H63.6653V41.1281H67.6036V55.7095Z" fill="#373435"/>
<path d="M76.9935 55.7095V41.1281H84.3126V44.5561H80.9314V46.6809H83.963V49.977H80.9314V52.2059H84.3126V55.7095H76.9935Z" fill="#373435"/>
<path d="M99.0191 50.7326L98.764 49.0326C98.7575 49.0265 98.7451 48.9411 98.7262 48.7774C98.7137 48.6395 98.6476 48.0914 98.5281 47.1345C98.5153 47.0275 98.4994 46.8813 98.4809 46.6953C98.462 46.5097 98.4367 46.2746 98.4049 45.9916L98.2825 44.6132C98.2696 44.7451 98.2526 44.8932 98.2303 45.0569C98.208 45.2205 98.1846 45.4 98.1596 45.5951C98.1154 45.9851 98.0844 46.2561 98.0651 46.4077C98.0462 46.5581 98.0338 46.6496 98.0273 46.6813L97.7533 48.4471L97.3568 50.7326H99.0191ZM103.845 55.7095H99.7742L99.4817 53.8582H96.8277L96.5072 55.7095H92.4366L95.9403 41.1281H100.757L103.845 55.7095Z" fill="#373435"/>
<path d="M117.428 55.7095H113.489V44.6222H111.317V41.1281H119.685V44.6222H117.428V55.7095Z" fill="#373435"/>
<path d="M131.992 47.8805H132.257C132.71 47.8805 133.088 47.7074 133.39 47.3612C133.692 47.015 133.843 46.574 133.843 46.0392C133.843 44.9499 133.273 44.4049 132.134 44.4049H131.992V47.8805ZM138.423 55.7095H134.164L132.219 50.5152C132.2 50.4272 132.167 50.3108 132.12 50.166C132.072 50.0213 132.014 49.8482 131.945 49.6463L131.973 50.6097V55.7095H128.054V41.1284H132.087C133.862 41.1284 135.191 41.4776 136.072 42.1765C137.193 43.0703 137.753 44.3422 137.753 45.9919C137.753 47.7547 137.001 48.9732 135.496 49.6463L138.423 55.7095Z" fill="#373435"/>
<path d="M147.077 55.7095V41.1281H154.396V44.5561H151.015V46.6809H154.047V49.977H151.015V52.2059H154.396V55.7095H147.077Z" fill="#373435"/>
<path d="M163.115 55.3505V50.7704C163.889 51.8283 164.727 52.3571 165.627 52.3571C165.967 52.3571 166.244 52.2675 166.458 52.088C166.672 51.9084 166.779 51.6836 166.779 51.4126C166.779 51.0221 166.546 50.6415 166.081 50.27L165.438 49.7692C165.01 49.4483 164.645 49.129 164.343 48.8107C164.041 48.4933 163.795 48.1656 163.606 47.8284C163.417 47.4921 163.279 47.1439 163.191 46.7849C163.102 46.4262 163.059 46.0487 163.059 45.6518C163.059 44.9722 163.215 44.2606 163.531 43.5171C163.688 43.1713 163.871 42.8546 164.078 42.5685C164.286 42.282 164.526 42.0284 164.796 41.8077C165.539 41.1784 166.436 40.8635 167.488 40.8635C168.426 40.8635 169.37 41.1122 170.321 41.6096V46.0672C170 45.5702 169.635 45.1782 169.226 44.8914C168.816 44.6053 168.413 44.4616 168.017 44.4616C167.714 44.4616 167.466 44.5501 167.27 44.7262C167.069 44.8963 166.969 45.1011 166.969 45.34C166.969 45.7304 167.236 46.1178 167.771 46.5018L168.394 46.9648C169.226 47.5627 169.82 48.1762 170.179 48.8062C170.544 49.4355 170.727 50.1725 170.727 51.0157C170.727 52.4516 170.289 53.6349 169.414 54.5666C168.539 55.4986 167.431 55.9646 166.09 55.9646C165.164 55.9646 164.173 55.7602 163.115 55.3505Z" fill="#373435"/>
<path d="M24.2521 0.999268H16.5634L6.74835 12.082L5.84844 13.2276L6.01209 11.7146V0.999268H0V31.0998H6.01209V19.7299L7.48422 18.2577L16.7675 31.0998H24.2929L11.8193 14.4952L24.2521 0.999268Z" fill="#EF4E3C"/>
<path d="M28.7913 31.0998H34.7213V0.999268H28.7913V31.0998Z" fill="#EF4E3C"/>
<path d="M122.622 12.6546C122.472 13.1735 122.227 13.6709 121.886 14.1475C121.545 14.6248 121.074 15.0206 120.475 15.3339C119.875 15.6468 119.125 15.8037 118.226 15.8037H114.013V6.72488H118.267C119.303 6.72488 120.127 6.90252 120.741 7.25629C121.355 7.61118 121.811 8.04772 122.111 8.56513C122.411 9.08331 122.608 9.5943 122.704 10.0989C122.799 10.6038 122.847 11.0052 122.847 11.3049C122.847 11.687 122.772 12.1368 122.622 12.6546ZM128.777 11.1413C128.777 9.07046 128.327 7.27707 127.428 5.76413C126.528 4.25081 125.219 3.07876 123.501 2.24651C121.784 1.41502 119.684 0.999268 117.203 0.999268H108.083V31.0998H114.013V21.5701H118.267C120.23 21.5701 121.886 21.2636 123.236 20.6502C124.585 20.0364 125.662 19.2257 126.467 18.2165C127.27 17.2089 127.857 16.0841 128.225 14.8429C128.593 13.6029 128.777 12.3685 128.777 11.1413Z" fill="#373435"/>
<path d="M165.42 6.72489H169.674C170.71 6.72489 171.535 6.90289 172.148 7.25666C172.761 7.61118 173.218 8.04771 173.518 8.5655C173.818 9.0833 174.015 9.59392 174.111 10.0985C174.206 10.6038 174.254 11.0188 174.254 11.3461C174.254 11.7827 174.179 12.2528 174.029 12.7574C173.879 13.262 173.634 13.7457 173.293 14.2087C172.952 14.6725 172.482 15.0542 171.882 15.3539C171.282 15.6544 170.533 15.8037 169.633 15.8037H165.42V6.72489ZM178.037 18.1761C178.869 17.1677 179.469 16.0494 179.837 14.8225C180.205 13.5953 180.389 12.3681 180.389 11.1413C180.389 9.58788 180.129 8.19096 179.612 6.94939C179.093 5.70932 178.337 4.64614 177.342 3.75984C176.346 2.8743 175.113 2.19247 173.641 1.71511C172.168 1.23813 170.492 0.998901 168.61 0.998901H159.49V31.0994H165.42V21.5293H169.369L175.726 31.0994H182.638L175.627 20.1584C176.587 19.615 177.394 18.9566 178.037 18.1761Z" fill="#373435"/>
<path d="M199.364 14.4952L211.798 0.999268H204.109L194.293 12.082L193.394 13.2276L193.557 11.7146V0.999268H187.545V31.0998H193.557V19.7299L195.029 18.2577L204.313 31.0998H211.838L199.364 14.4952Z" fill="#373435"/>
<path d="M61.2468 0.999268L61.3655 19.1497L41.6757 1.24381C41.5026 1.08658 41.2773 0.999268 41.043 0.999268C40.5241 0.999268 40.103 1.41993 40.103 1.93924V31.0994H43.6278H46.1151L45.9964 13.2948L65.5676 30.847C65.749 31.0095 65.9845 31.0994 66.2283 31.0994C66.7748 31.0994 67.2181 30.6565 67.2181 30.1096V0.999268H61.2468Z" fill="#EF4E3C"/>
<path d="M138.009 20.2212L141.065 12.8825L143.957 20.2212H138.009ZM140.632 1.47662L127.632 31.0994H133.48L135.932 25.2106H145.923L148.244 31.0994H155.114L142.092 1.47549C141.965 1.18598 141.679 0.999268 141.362 0.999268C141.046 0.999268 140.759 1.18635 140.632 1.47662Z" fill="#373435"/>
<path d="M96.9808 2.97266L93.5675 8.22847C95.9376 10.0151 97.4706 12.8527 97.4706 16.0495C97.4706 21.4557 93.0883 25.838 87.682 25.838C85.9574 25.838 84.3379 25.3905 82.9308 24.6074L79.5164 29.8651C81.9088 31.2825 84.6996 32.0988 87.682 32.0988C96.5458 32.0988 103.731 24.9132 103.731 16.0495C103.731 10.6527 101.065 5.88251 96.9808 2.97266Z" fill="#373435"/>
<path d="M81.7961 23.8704C79.426 22.0838 77.893 19.2461 77.893 16.0494C77.893 10.6432 82.2757 6.26078 87.6816 6.26078C89.4066 6.26078 91.0261 6.70829 92.4328 7.49103L95.8473 2.2337C93.4548 0.816382 90.664 0 87.6816 0C78.8182 0 71.6326 7.18564 71.6326 16.0494C71.6326 21.4462 74.299 26.2167 78.3828 29.1262L81.7961 23.8704Z" fill="#EF4E3C"/>
</svg>
