<svg width="212" height="45" viewBox="0 0 212 45" fill="none" xmlns="http://www.w3.org/2000/svg">
<path d="M6.23173 8.78364L13.513 2.0814C13.7787 1.81608 14.0863 1.61049 14.4367 1.46574C14.7863 1.32098 15.1915 1.24841 15.6507 1.24841C16.1575 1.24841 16.5978 1.33911 16.9728 1.51977C17.3466 1.70081 17.655 1.93666 17.8965 2.22655C18.1376 2.51606 18.3187 2.83052 18.44 3.16841C18.5606 3.50705 18.6214 3.83285 18.6214 4.14617C18.6214 4.50863 18.5485 4.87751 18.4037 5.25169C18.2586 5.62586 18.0171 5.9577 17.6788 6.24721L9.9266 13.4204L19.3818 22.0785C20.0096 22.6583 20.3237 23.3348 20.3237 24.107C20.3237 24.4211 20.2568 24.7537 20.1241 25.1037C19.9915 25.454 19.7983 25.7681 19.5447 26.0451C19.2911 26.3229 18.971 26.5523 18.5847 26.7334C18.1981 26.9148 17.7517 27.0055 17.2445 27.0055C16.7853 27.0055 16.3809 26.9269 16.0305 26.7697C15.6806 26.6132 15.3721 26.4136 15.1068 26.1717L6.15916 17.949V24.107C6.15916 24.4211 6.09869 24.7472 5.97812 25.0851C5.85717 25.4238 5.66971 25.7314 5.41611 26.0092C5.16288 26.287 4.84276 26.5164 4.45649 26.6971C4.06984 26.8785 3.62347 26.9688 3.11626 26.9688C2.60905 26.9688 2.16798 26.8785 1.79418 26.6971C1.41926 26.5164 1.10594 26.281 0.852329 25.9911C0.598723 25.7008 0.40483 25.3879 0.272546 25.0492C0.139507 24.711 0.0733643 24.3852 0.0733643 24.0711V4.14617C0.0733643 3.80866 0.139507 3.47039 0.272546 3.13212C0.40483 2.79386 0.604013 2.48658 0.870092 2.20841C1.13579 1.93099 1.45554 1.70081 1.83009 1.51977C2.20426 1.33911 2.64496 1.24841 3.15218 1.24841C3.65939 1.24841 4.10008 1.33911 4.47425 1.51977C4.8488 1.70081 5.16855 1.92457 5.43463 2.19027C5.69995 2.45635 5.89913 2.75795 6.03255 3.09584C6.16484 3.43449 6.23173 3.77237 6.23173 4.11026V8.78364Z" fill="#414041"/>
<path d="M24.6414 4.1481C24.6414 3.8344 24.7079 3.50861 24.8406 3.16997C24.9729 2.83208 25.1724 2.52442 25.4385 2.24625C25.7038 1.96921 26.0236 1.73903 26.3981 1.55837C26.7727 1.37657 27.2134 1.28625 27.7202 1.28625C28.2278 1.28625 28.6681 1.37657 29.0427 1.55837C29.4168 1.73903 29.7366 1.96279 30.0027 2.22811C30.268 2.49419 30.4672 2.79579 30.6002 3.13368C30.7325 3.47195 30.7998 3.81021 30.7998 4.1481V24.0711C30.7998 24.3852 30.7389 24.7114 30.6184 25.0493C30.497 25.3879 30.3107 25.6956 30.0571 25.973C29.8035 26.2508 29.483 26.4798 29.0971 26.6612C28.7108 26.8423 28.2637 26.9326 27.7569 26.9326C27.2735 26.9326 26.8385 26.8483 26.4526 26.679C26.0663 26.5108 25.7401 26.2931 25.4744 26.0274C25.2087 25.7621 25.0039 25.4601 24.8591 25.1218C24.714 24.7836 24.6414 24.4457 24.6414 24.1074V4.1481Z" fill="#414041"/>
<path d="M43.0182 12.2249V24.1074C43.0182 24.4211 42.9574 24.7472 42.8372 25.0851C42.7159 25.4234 42.5292 25.7318 42.2756 26.0088C42.022 26.287 41.7015 26.5161 41.3156 26.6971C40.9293 26.8785 40.4822 26.9692 39.975 26.9692C39.4677 26.9692 39.0271 26.8785 38.6533 26.6971C38.2783 26.5161 37.9646 26.281 37.711 25.9907C37.4574 25.7012 37.2639 25.3875 37.1316 25.0488C36.9986 24.711 36.9321 24.3852 36.9321 24.0707V4.14654C36.9321 3.80865 36.9986 3.47077 37.1316 3.13212C37.2639 2.79461 37.4631 2.4862 37.7292 2.20841C37.9949 1.93099 38.3142 1.70119 38.6892 1.51977C39.0633 1.33873 39.5044 1.24841 40.0116 1.24841C40.5188 1.24841 40.9773 1.35159 41.3885 1.55644C41.7986 1.76167 42.1365 2.00885 42.4025 2.29911L54.1036 15.8476V4.18282C54.1036 3.86912 54.1697 3.54296 54.3028 3.20432C54.4354 2.86643 54.6342 2.55914 54.9007 2.28059C55.166 2.00355 55.4858 1.77337 55.8603 1.59234C56.2345 1.41167 56.6759 1.32098 57.1824 1.32098C57.6896 1.32098 58.1303 1.41167 58.5048 1.59234C58.879 1.77337 59.1988 1.99713 59.4648 2.26283C59.7302 2.52891 59.9297 2.83051 60.0628 3.16802C60.1951 3.50704 60.262 3.83284 60.262 4.14654V24.1074C60.262 24.4211 60.1951 24.7472 60.0628 25.0851C59.9297 25.4234 59.7366 25.7318 59.483 26.0088C59.2294 26.287 58.9157 26.5161 58.5411 26.6971C58.1666 26.8785 57.7259 26.9692 57.2187 26.9692C56.7118 26.9692 56.253 26.8664 55.8422 26.6612C55.4317 26.4563 55.0935 26.1963 54.8281 25.8822L43.0182 12.2249Z" fill="#414041"/>
<path d="M133.119 20.7016C133.119 20.8951 133.18 21.0339 133.301 21.1181C133.421 21.2032 133.518 21.2451 133.59 21.2451H140.727C141.234 21.2451 141.674 21.3358 142.049 21.5173C142.423 21.6979 142.743 21.9217 143.009 22.187C143.275 22.4531 143.474 22.7547 143.607 23.0929C143.74 23.4316 143.806 23.7695 143.806 24.1074C143.806 24.4211 143.746 24.7472 143.625 25.0851C143.504 25.4238 143.317 25.7314 143.064 26.0088C142.81 26.287 142.489 26.5161 142.103 26.6971C141.717 26.8785 141.27 26.9688 140.763 26.9688H130.112C129.605 26.9688 129.165 26.8785 128.791 26.6971C128.416 26.5161 128.102 26.281 127.849 25.9911C127.595 25.7012 127.401 25.3879 127.269 25.0492C127.136 24.711 127.07 24.3852 127.07 24.0711V4.14617C127.07 3.80866 127.136 3.47077 127.269 3.13212C127.401 2.79386 127.601 2.4862 127.867 2.20841C128.132 1.93099 128.452 1.70081 128.827 1.51977C129.201 1.33911 129.642 1.24841 130.149 1.24841C130.68 1.24841 131.133 1.34516 131.508 1.53791C131.882 1.7318 132.189 1.97294 132.431 2.26283C132.672 2.55234 132.847 2.86642 132.957 3.20469C133.065 3.54296 133.119 3.85666 133.119 4.14617V20.7016Z" fill="#F3773E"/>
<path d="M151.735 26.9325C151.276 26.9325 150.847 26.8547 150.449 26.6971C150.05 26.5406 149.712 26.3293 149.434 26.0633C149.156 25.7979 148.939 25.496 148.782 25.1577C148.625 24.8198 148.546 24.4694 148.546 24.107V4.14617C148.546 3.83285 148.613 3.50705 148.746 3.1684C148.879 2.83051 149.078 2.52248 149.344 2.24469C149.609 1.96727 149.929 1.73747 150.303 1.55644C150.678 1.37502 151.119 1.2843 151.626 1.2843H161.878C162.385 1.2843 162.825 1.37502 163.2 1.55644C163.575 1.73747 163.894 1.96122 164.16 2.22654C164.426 2.49225 164.625 2.79385 164.758 3.13212C164.89 3.47039 164.957 3.80866 164.957 4.14617C164.957 4.46062 164.897 4.78678 164.776 5.12467C164.655 5.46294 164.468 5.76455 164.214 6.03025C163.961 6.29633 163.641 6.51934 163.254 6.70038C162.868 6.88142 162.421 6.97212 161.914 6.97212H155.176C155.103 6.97212 155.007 7.02086 154.886 7.11686C154.765 7.214 154.705 7.35876 154.705 7.5519V10.0513C154.705 10.2448 154.765 10.3839 154.886 10.4678C155.007 10.5528 155.103 10.5948 155.176 10.5948H160.03C160.538 10.5948 160.978 10.6855 161.353 10.8662C161.727 11.0476 162.046 11.2709 162.313 11.5363C162.578 11.8027 162.777 12.1043 162.91 12.4422C163.042 12.7805 163.11 13.1188 163.11 13.4567C163.11 13.7707 163.042 14.0965 162.91 14.4348C162.777 14.7731 162.584 15.0811 162.33 15.3585C162.077 15.6363 161.763 15.8657 161.389 16.0468C161.014 16.2278 160.574 16.3181 160.067 16.3181H155.212C155.14 16.3181 155.043 16.3673 154.922 16.4633C154.802 16.56 154.741 16.7048 154.741 16.8983V20.6657C154.741 20.8592 154.802 20.9979 154.922 21.0822C155.043 21.1673 155.14 21.2092 155.212 21.2092H161.95C162.458 21.2092 162.898 21.2995 163.273 21.4806C163.647 21.662 163.967 21.8854 164.233 22.1507C164.498 22.4171 164.697 22.7188 164.83 23.0567C164.963 23.3949 165.03 23.7328 165.03 24.0711C165.03 24.3851 164.969 24.711 164.849 25.0492C164.728 25.3879 164.54 25.6955 164.287 25.9726C164.033 26.2507 163.713 26.4798 163.327 26.6612C162.94 26.8422 162.494 26.9325 161.987 26.9325H151.735Z" fill="#F3773E"/>
<path d="M179.164 8.45711L182.823 2.62491C183.064 2.23902 183.408 1.91285 183.856 1.64715C184.302 1.38145 184.827 1.24841 185.432 1.24841C185.939 1.24841 186.386 1.33874 186.772 1.52016C187.158 1.7012 187.478 1.93099 187.732 2.20841C187.985 2.4862 188.172 2.79423 188.293 3.13212C188.414 3.47039 188.474 3.79695 188.474 4.11065C188.474 4.61711 188.33 5.11221 188.04 5.59561L182.932 13.7825C182.859 13.855 182.823 13.9639 182.823 14.109C182.823 14.2537 182.859 14.3622 182.932 14.4348L188.04 22.6216C188.33 23.0809 188.474 23.5639 188.474 24.0711C188.474 24.3852 188.414 24.711 188.293 25.0488C188.172 25.3875 187.985 25.7012 187.732 25.9907C187.478 26.281 187.158 26.5161 186.772 26.6975C186.386 26.8785 185.939 26.9692 185.432 26.9692C184.827 26.9692 184.302 26.8305 183.856 26.5527C183.408 26.2749 183.064 25.9427 182.823 25.5561L179.164 19.7598L175.542 25.5561C175.276 25.9427 174.92 26.2749 174.473 26.5527C174.026 26.8305 173.501 26.9692 172.897 26.9692C172.39 26.9692 171.949 26.8785 171.575 26.6975C171.2 26.5161 170.886 26.281 170.633 25.9907C170.379 25.7012 170.186 25.3875 170.053 25.0488C169.92 24.711 169.854 24.3852 169.854 24.0711C169.854 23.5639 169.999 23.0809 170.289 22.6216L175.397 14.4348C175.469 14.3622 175.505 14.2537 175.505 14.109C175.505 13.9639 175.469 13.855 175.397 13.7825L170.289 5.59561C169.999 5.11221 169.854 4.61711 169.854 4.11065C169.854 3.79695 169.92 3.47039 170.053 3.13212C170.186 2.79423 170.379 2.4862 170.633 2.20841C170.886 1.93099 171.2 1.7012 171.575 1.52016C171.949 1.33874 172.39 1.24841 172.897 1.24841C173.501 1.24841 174.026 1.38145 174.473 1.64715C174.92 1.91285 175.276 2.23902 175.542 2.62491L179.164 8.45711Z" fill="#F3773E"/>
<path d="M202.459 8.45711L206.118 2.62491C206.359 2.23902 206.703 1.91285 207.15 1.64715C207.597 1.38145 208.122 1.24841 208.726 1.24841C209.233 1.24841 209.68 1.33874 210.066 1.52016C210.453 1.7012 210.773 1.93099 211.026 2.20841C211.28 2.4862 211.467 2.79423 211.588 3.13212C211.708 3.47039 211.769 3.79695 211.769 4.11065C211.769 4.61711 211.625 5.11221 211.334 5.59561L206.227 13.7825C206.154 13.855 206.118 13.9639 206.118 14.109C206.118 14.2537 206.154 14.3622 206.227 14.4348L211.334 22.6216C211.625 23.0809 211.769 23.5639 211.769 24.0711C211.769 24.3852 211.708 24.711 211.588 25.0488C211.467 25.3875 211.28 25.7012 211.026 25.9907C210.773 26.281 210.453 26.5161 210.066 26.6975C209.68 26.8785 209.233 26.9692 208.726 26.9692C208.122 26.9692 207.597 26.8305 207.15 26.5527C206.703 26.2749 206.359 25.9427 206.118 25.5561L202.459 19.7598L198.836 25.5561C198.57 25.9427 198.214 26.2749 197.768 26.5527C197.321 26.8305 196.795 26.9692 196.192 26.9692C195.685 26.9692 195.244 26.8785 194.87 26.6975C194.495 26.5161 194.181 26.281 193.928 25.9907C193.674 25.7012 193.481 25.3875 193.348 25.0488C193.215 24.711 193.149 24.3852 193.149 24.0711C193.149 23.5639 193.294 23.0809 193.583 22.6216L198.691 14.4348C198.764 14.3622 198.8 14.2537 198.8 14.109C198.8 13.9639 198.764 13.855 198.691 13.7825L193.583 5.59561C193.294 5.11221 193.149 4.61711 193.149 4.11065C193.149 3.79695 193.215 3.47039 193.348 3.13212C193.481 2.79423 193.674 2.4862 193.928 2.20841C194.181 1.93099 194.495 1.7012 194.87 1.52016C195.244 1.33874 195.685 1.24841 196.192 1.24841C196.795 1.24841 197.321 1.38145 197.768 1.64715C198.214 1.91285 198.57 2.23902 198.836 2.62491L202.459 8.45711Z" fill="#F3773E"/>
<path d="M101.015 44.6238V29.1659L95.0026 23.1534V38.6117L101.015 44.6238Z" fill="#F3773E"/>
<path d="M108.286 0.831543C102.833 0.831543 98.1408 4.13259 96.0923 8.83999L101.038 13.7855C101.218 9.93795 104.395 6.86177 108.286 6.86177C112.292 6.86177 115.552 10.1205 115.552 14.1272C115.552 18.1331 112.292 21.3926 108.286 21.3926C106.127 21.3926 104.19 20.4405 102.858 18.94L95.0026 11.0843V19.5871L99.5271 24.1112C101.869 26.1687 104.932 27.4224 108.286 27.4224C115.617 27.4224 121.582 21.4579 121.582 14.1272C121.582 6.79603 115.617 0.831543 108.286 0.831543Z" fill="#F3773E"/>
<path d="M79.2514 21.3926C75.2451 21.3926 71.986 18.1331 71.986 14.1272C71.986 10.1205 75.2451 6.8614 79.2514 6.8614C81.2663 6.8614 83.0911 7.68723 84.4086 9.01573L84.4203 9.0044L95.003 19.5871V11.0843L88.6715 4.7528L88.6708 4.75319C86.2617 2.33278 82.9289 0.831543 79.2514 0.831543C71.9203 0.831543 65.9562 6.79603 65.9562 14.1272C65.9562 21.4583 71.9203 27.4224 79.2514 27.4224C84.7178 27.4224 89.4206 24.1055 91.4616 19.3796L86.5021 14.4205C86.3464 18.2899 83.1587 21.3926 79.2514 21.3926Z" fill="#414041"/>
<path d="M110.172 35.7506V42.3311H109.015V35.7506H107.252V34.6628H111.931V35.7506H110.172Z" fill="#414041"/>
<path d="M122.268 37.6623H125.576V34.6628H126.733V42.3307H125.576V38.75H122.268V42.3307H121.111V34.6628H122.268V37.6623Z" fill="#414041"/>
<path d="M140.949 35.7506H137.875V37.5927H140.86V38.6805H137.875V41.243H140.949V42.3311H136.718V34.6628H140.949V35.7506Z" fill="#414041"/>
<path d="M154.648 39.3808L153.511 36.7737L152.319 39.3808H154.648ZM155.12 40.4685H151.837L150.983 42.3311H149.737L153.531 34.1809L157.191 42.3311H155.925L155.12 40.4685Z" fill="#414041"/>
<path d="M167.986 35.7506V42.3311H166.828V35.7506H165.065V34.6628H169.744V35.7506H167.986Z" fill="#414041"/>
<path d="M180.081 38.1842H180.449C181.544 38.1842 182.092 37.7651 182.092 36.9272C182.092 36.1425 181.56 35.7502 180.493 35.7502H180.081V38.1842ZM181.522 39.0633L183.895 42.3307H182.48L180.29 39.1922H180.081V42.3307H178.924V34.6628H180.28C181.293 34.6628 182.025 34.8529 182.475 35.2339C182.972 35.6576 183.22 36.217 183.22 36.9124C183.22 37.4555 183.064 37.9219 182.753 38.3131C182.442 38.7035 182.031 38.9537 181.522 39.0633Z" fill="#414041"/>
<path d="M197.426 35.7506H194.352V37.5927H197.337V38.6805H194.352V41.243H197.426V42.3311H193.195V34.6628H197.426V35.7506Z" fill="#414041"/>
<path d="M211.428 35.805L210.49 36.3613C210.314 36.0567 210.147 35.8583 209.988 35.7653C209.823 35.6595 209.609 35.6062 209.348 35.6062C209.026 35.6062 208.76 35.6977 208.548 35.8795C208.336 36.0582 208.23 36.2835 208.23 36.5549C208.23 36.929 208.509 37.2303 209.065 37.4589L209.829 37.7715C210.452 38.0232 210.907 38.3301 211.195 38.6929C211.483 39.0558 211.627 39.4999 211.627 40.0264C211.627 40.7316 211.392 41.3148 210.922 41.7748C210.449 42.2385 209.861 42.4702 209.159 42.4702C208.494 42.4702 207.944 42.2729 207.51 41.8791C207.083 41.4849 206.817 40.9304 206.71 40.215L207.883 39.9568C207.936 40.407 208.028 40.7184 208.161 40.8903C208.399 41.2218 208.747 41.3874 209.203 41.3874C209.564 41.3874 209.864 41.2664 210.102 41.0245C210.341 40.783 210.46 40.4769 210.46 40.1061C210.46 39.9568 210.44 39.8204 210.398 39.6964C210.356 39.572 210.292 39.4579 210.204 39.3536C210.117 39.2489 210.003 39.1514 209.864 39.0607C209.725 38.9692 209.56 38.8827 209.367 38.7995L208.627 38.4919C207.578 38.0482 207.054 37.3992 207.054 36.545C207.054 35.969 207.273 35.4871 207.713 35.0997C208.154 34.7089 208.702 34.5139 209.358 34.5139C210.242 34.5139 210.932 34.9444 211.428 35.805Z" fill="#414041"/>
</svg>
