<svg width="120" height="49" viewBox="0 0 120 49" fill="none" xmlns="http://www.w3.org/2000/svg">
<path d="M13.7343 0.573334H9.38004L3.82177 6.93415L3.31197 7.59134L3.40456 6.7231V0.573334H0V17.8485H3.40456V11.323L4.23823 10.4782L9.49568 17.8485H13.7573L6.69348 8.31899L13.7343 0.573334Z" fill="#EF4E3C"/>
<path d="M16.3048 17.8485H19.6629V0.573334H16.3048V17.8485Z" fill="#EF4E3C"/>
<path d="M69.4432 7.26274C69.3578 7.55993 69.2191 7.84602 69.0263 8.11946C68.8329 8.39367 68.5664 8.62036 68.2271 8.80036C67.8873 8.97998 67.4625 9.0696 66.9531 9.0696H64.5678V3.85925H66.9762C67.5631 3.85925 68.0302 3.96149 68.3775 4.16447C68.7251 4.36821 68.9836 4.61869 69.1533 4.91549C69.323 5.21306 69.4349 5.50639 69.4893 5.79592C69.5433 6.08545 69.5705 6.31601 69.5705 6.48797C69.5705 6.70741 69.5278 6.96555 69.4432 7.26274ZM72.9286 6.39413C72.9286 5.20538 72.6739 4.17632 72.1645 3.30812C71.655 2.43954 70.9136 1.76665 69.9409 1.28947C68.9681 0.81228 67.7789 0.573334 66.3742 0.573334H61.2093V17.8485H64.5678V12.3793H66.9762C68.088 12.3793 69.0263 12.2035 69.7905 11.8515C70.555 11.4992 71.1645 11.0339 71.6203 10.4548C72.0753 9.87614 72.4075 9.23085 72.6161 8.51852C72.8247 7.80657 72.9286 7.09842 72.9286 6.39413Z" fill="#373435"/>
<path d="M93.6802 3.85962H96.089C96.6755 3.85962 97.143 3.96149 97.4903 4.16447C97.8376 4.36821 98.0961 4.61868 98.2662 4.91586C98.4358 5.21305 98.5477 5.50602 98.6021 5.79555C98.6558 6.08584 98.683 6.32368 98.683 6.51172C98.683 6.76218 98.6403 7.03216 98.5556 7.32131C98.4706 7.61122 98.3315 7.88891 98.1388 8.15469C97.9453 8.42047 97.6793 8.63989 97.3395 8.81184C96.9998 8.98418 96.5754 9.06998 96.066 9.06998H93.6802V3.85962ZM100.825 10.4314C101.296 9.85277 101.636 9.21091 101.845 8.50662C102.053 7.80233 102.157 7.09842 102.157 6.39413C102.157 5.50257 102.01 4.70103 101.717 3.98831C101.424 3.27675 100.995 2.66664 100.432 2.15767C99.8677 1.64946 99.1693 1.25807 98.3357 0.984246C97.502 0.710419 96.5523 0.573334 95.487 0.573334H90.3221V17.8481H93.6802V12.3559H95.9167L99.517 17.8481H103.431L99.4603 11.5693C100.005 11.2571 100.461 10.8791 100.825 10.4314Z" fill="#373435"/>
<path d="M112.903 8.31899L119.944 0.573334H115.59L110.032 6.93415L109.522 7.59134L109.615 6.7231V0.573334H106.21V17.8485H109.615V11.323L110.448 10.4782L115.706 17.8485H119.968L112.903 8.31899Z" fill="#373435"/>
<path d="M34.685 0.573334L34.7523 10.9902L23.6018 0.713882C23.5035 0.6235 23.3758 0.573334 23.2435 0.573334C22.9495 0.573334 22.711 0.814984 22.711 1.11294V17.8481H24.7071H26.1156L26.0483 7.63001L37.132 17.7034C37.2348 17.7965 37.3682 17.8481 37.5061 17.8481C37.8156 17.8481 38.0666 17.5938 38.0666 17.2802V0.573334H34.685Z" fill="#EF4E3C"/>
<path d="M78.1569 11.6049L79.8878 7.3933L81.5252 11.6049H78.1569ZM79.6421 0.847138L72.2797 17.8481H75.5917L76.9805 14.4688H82.6389L83.9529 17.8481H87.8439L80.4694 0.846764C80.3972 0.680553 80.2351 0.573334 80.0559 0.573334C79.8764 0.573334 79.7139 0.680927 79.6421 0.847138Z" fill="#373435"/>
<path d="M54.9217 1.70579L52.9887 4.72249C54.331 5.74772 55.199 7.37651 55.199 9.21096C55.199 12.3134 52.7173 14.8288 49.6555 14.8288C48.679 14.8288 47.7622 14.5718 46.9652 14.1222L45.0314 17.14C46.3862 17.9535 47.9667 18.4219 49.6555 18.4219C54.6753 18.4219 58.7446 14.298 58.7446 9.21096C58.7446 6.11385 57.2348 3.37594 54.9217 1.70579Z" fill="#373435"/>
<path d="M46.3224 13.6994C44.9801 12.6742 44.112 11.0454 44.112 9.21095C44.112 6.10809 46.5941 3.59308 49.6559 3.59308C50.6325 3.59308 51.5496 3.85008 52.3467 4.29931L54.28 1.28185C52.9248 0.468412 51.3448 7.62939e-06 49.6559 7.62939e-06C44.6362 7.62939e-06 40.5669 4.1239 40.5669 9.21095C40.5669 12.3081 42.077 15.0459 44.3894 16.7157L46.3224 13.6994Z" fill="#EF4E3C"/>
<path d="M3.50282 28.4133L7.62995 24.564C7.78035 24.4116 7.95494 24.2936 8.15372 24.2105C8.35174 24.127 8.58114 24.0853 8.84152 24.0853C9.12911 24.0853 9.37853 24.1374 9.59091 24.2416C9.80292 24.3453 9.97751 24.4809 10.1147 24.6475C10.2511 24.8137 10.3539 24.9941 10.4223 25.1883C10.4907 25.3828 10.5251 25.5697 10.5251 25.7501C10.5251 25.958 10.4839 26.1698 10.4019 26.3847C10.3195 26.5999 10.1827 26.7902 9.99111 26.9568L5.59718 31.0769L10.9563 36.0502C11.3123 36.383 11.4903 36.7717 11.4903 37.2152C11.4903 37.3959 11.4521 37.5867 11.3773 37.7877C11.3017 37.9888 11.1925 38.1692 11.0489 38.3285C10.9049 38.4882 10.7235 38.6199 10.5047 38.7237C10.2855 38.8279 10.0323 38.88 9.74508 38.88C9.48471 38.88 9.25532 38.8352 9.05692 38.7448C8.85851 38.6548 8.68392 38.5403 8.53351 38.4012L3.46161 33.678V37.2152C3.46161 37.3959 3.4276 37.5828 3.3592 37.7774C3.29042 37.9715 3.18462 38.1485 3.04064 38.3078C2.89741 38.4675 2.71563 38.5992 2.49682 38.703C2.27764 38.8072 2.02444 38.8589 1.73723 38.8589C1.44964 38.8589 1.19946 38.8072 0.987833 38.703C0.775449 38.5992 0.597459 38.4637 0.453854 38.2975C0.310249 38.1309 0.20028 37.9509 0.125454 37.7563C0.0498729 37.5622 0.0124512 37.3749 0.0124512 37.1945V25.7501C0.0124512 25.5559 0.0498729 25.3617 0.125454 25.1672C0.20028 24.9734 0.313273 24.7965 0.464058 24.6368C0.614465 24.4774 0.795857 24.3453 1.00824 24.2416C1.22025 24.1374 1.47005 24.0853 1.75763 24.0853C2.04522 24.0853 2.29464 24.1374 2.50703 24.2416C2.71903 24.3453 2.90043 24.474 3.05121 24.6264C3.20162 24.7792 3.31462 24.9527 3.3902 25.1465C3.46503 25.3411 3.50282 25.5352 3.50282 25.7294V28.4133Z" fill="#414041"/>
<path d="M13.9375 25.7508C13.9375 25.5708 13.9749 25.3836 14.0501 25.1894C14.1253 24.9948 14.2383 24.8183 14.3891 24.6586C14.5395 24.4993 14.7209 24.3671 14.9333 24.2633C15.1453 24.1592 15.3951 24.1071 15.6827 24.1071C15.9699 24.1071 16.2197 24.1592 16.432 24.2633C16.6441 24.3671 16.8255 24.4958 16.9759 24.6483C17.1266 24.8011 17.2393 24.9742 17.3148 25.1683C17.3897 25.3625 17.4278 25.5571 17.4278 25.7508V37.1945C17.4278 37.3749 17.3934 37.5625 17.325 37.7563C17.2563 37.9509 17.1504 38.1274 17.0068 38.2871C16.8632 38.4464 16.6815 38.5782 16.463 38.6823C16.2438 38.7865 15.9906 38.8382 15.7031 38.8382C15.4291 38.8382 15.1827 38.79 14.9639 38.6927C14.7451 38.5958 14.5599 38.4709 14.4095 38.3181C14.2587 38.1657 14.1427 37.9926 14.0607 37.798C13.9787 37.6039 13.9375 37.4097 13.9375 37.2155V25.7508Z" fill="#414041"/>
<path d="M24.3535 30.3902V37.2156C24.3535 37.3956 24.3191 37.5832 24.2507 37.777C24.1819 37.9716 24.0761 38.1485 23.9325 38.3078C23.7885 38.4675 23.6071 38.5989 23.3883 38.703C23.1691 38.8072 22.9159 38.8593 22.6283 38.8593C22.3411 38.8593 22.0913 38.8072 21.8793 38.703C21.6666 38.5989 21.4889 38.4641 21.3453 38.2975C21.2017 38.1309 21.0917 37.9509 21.0169 37.7563C20.9413 37.5622 20.9039 37.3749 20.9039 37.1945V25.7501C20.9039 25.5559 20.9413 25.3617 21.0169 25.1676C21.0917 24.9734 21.2047 24.7965 21.3555 24.6368C21.5059 24.4774 21.6873 24.3457 21.8997 24.2416C22.1117 24.1374 22.3615 24.0853 22.6491 24.0853C22.9367 24.0853 23.1963 24.1447 23.4295 24.2622C23.6619 24.3802 23.8535 24.5223 24.0043 24.6889L30.6362 32.4709V25.7708C30.6362 25.5908 30.674 25.4035 30.7492 25.2089C30.8244 25.0148 30.9374 24.8382 31.0882 24.6785C31.2386 24.5192 31.42 24.3871 31.6324 24.2829C31.8444 24.1791 32.0945 24.127 32.3817 24.127C32.6689 24.127 32.9187 24.1791 33.1311 24.2829C33.3431 24.3871 33.5245 24.5154 33.6753 24.6678C33.8257 24.821 33.9387 24.9941 34.0143 25.1883C34.0891 25.3828 34.1269 25.5701 34.1269 25.7501V37.2156C34.1269 37.3956 34.0891 37.5832 34.0143 37.777C33.9387 37.9716 33.8291 38.1485 33.6855 38.3078C33.5419 38.4675 33.3639 38.5989 33.1515 38.703C32.9395 38.8072 32.6897 38.8593 32.4021 38.8593C32.1149 38.8593 31.8546 38.8003 31.6221 38.6823C31.389 38.5644 31.1974 38.4154 31.047 38.2347L24.3535 30.3902Z" fill="#414041"/>
<path d="M75.422 35.2593C75.422 35.3704 75.456 35.45 75.5248 35.4987C75.5932 35.5473 75.648 35.5715 75.6892 35.5715H79.7339C80.0215 35.5715 80.2709 35.6235 80.4837 35.7277C80.6953 35.8315 80.8767 35.9602 81.0275 36.1122C81.1779 36.2654 81.2909 36.4385 81.3665 36.6327C81.4413 36.8272 81.4795 37.021 81.4795 37.2156C81.4795 37.3959 81.4451 37.5828 81.3767 37.777C81.3079 37.9716 81.2021 38.1485 81.0585 38.3078C80.9149 38.4671 80.7331 38.5989 80.5143 38.703C80.2951 38.8072 80.0423 38.8589 79.7547 38.8589H73.7176C73.4304 38.8589 73.1806 38.8072 72.9686 38.703C72.7562 38.5989 72.5782 38.4637 72.4346 38.2975C72.291 38.1309 72.1811 37.9509 72.1062 37.7563C72.0306 37.5622 71.9932 37.3749 71.9932 37.1945V25.7501C71.9932 25.5559 72.0306 25.3617 72.1062 25.1676C72.1811 24.9734 72.294 24.7965 72.4448 24.6368C72.5952 24.4774 72.7766 24.3453 72.989 24.2416C73.201 24.1374 73.4508 24.0853 73.7384 24.0853C74.0392 24.0853 74.2962 24.1408 74.5086 24.2519C74.7206 24.3629 74.8948 24.5016 75.032 24.6682C75.1688 24.8344 75.2682 25.0148 75.3298 25.2089C75.3914 25.4035 75.422 25.5835 75.422 25.7501V35.2593Z" fill="#F3773E"/>
<path d="M85.9731 38.8382C85.7127 38.8382 85.4697 38.7934 85.2441 38.703C85.0181 38.613 84.8265 38.4916 84.6693 38.3388C84.5118 38.1864 84.3886 38.0133 84.2994 37.8187C84.2106 37.6245 84.166 37.4235 84.166 37.2151V25.75C84.166 25.5697 84.2038 25.3828 84.279 25.1882C84.3542 24.9941 84.4671 24.8171 84.6179 24.6578C84.7683 24.4981 84.9494 24.3664 85.1621 24.2622C85.3738 24.158 85.6239 24.1063 85.9115 24.1063H91.7222C92.0098 24.1063 92.2592 24.158 92.4716 24.2622C92.6836 24.3664 92.865 24.4946 93.0158 24.6475C93.1662 24.7999 93.2792 24.9734 93.3544 25.1672C93.4296 25.3617 93.4674 25.5559 93.4674 25.75C93.4674 25.9304 93.433 26.1177 93.3646 26.3119C93.2962 26.5064 93.1904 26.6795 93.0464 26.8319C92.9028 26.9847 92.721 27.113 92.5026 27.2168C92.283 27.321 92.0302 27.3731 91.7426 27.3731H87.9235C87.8827 27.3731 87.8275 27.401 87.7595 27.4562C87.6907 27.5117 87.6567 27.5952 87.6567 27.7059V29.1417C87.6567 29.2531 87.6907 29.3328 87.7595 29.381C87.8275 29.4297 87.8827 29.4538 87.9235 29.4538H90.675C90.9626 29.4538 91.2121 29.5059 91.4244 29.61C91.6364 29.7138 91.8178 29.8421 91.9686 29.9949C92.119 30.1477 92.232 30.3208 92.3072 30.515C92.3824 30.7096 92.4202 30.9037 92.4202 31.0975C92.4202 31.2783 92.3824 31.4652 92.3072 31.6597C92.232 31.8539 92.1224 32.0308 91.9788 32.1901C91.8348 32.3498 91.6572 32.4816 91.4448 32.5854C91.2325 32.6896 90.983 32.7416 90.6955 32.7416H87.9443C87.9031 32.7416 87.8483 32.7696 87.7799 32.8247C87.7111 32.8803 87.6771 32.9634 87.6771 33.0744V35.2386C87.6771 35.3497 87.7111 35.4293 87.7799 35.478C87.8483 35.5266 87.9031 35.5507 87.9443 35.5507H91.7634C92.0506 35.5507 92.3004 35.6025 92.5128 35.7066C92.7248 35.8108 92.9062 35.9391 93.0566 36.0915C93.2074 36.2447 93.3204 36.4178 93.3956 36.612C93.4708 36.8061 93.5086 37.0003 93.5086 37.1945C93.5086 37.3748 93.4742 37.5621 93.4058 37.7563C93.3374 37.9508 93.2312 38.1278 93.0876 38.2867C92.9436 38.4464 92.7622 38.5781 92.5434 38.6823C92.3242 38.7861 92.0714 38.8382 91.7838 38.8382H85.9731Z" fill="#F3773E"/>
<path d="M101.52 28.226L103.594 24.8761C103.73 24.6544 103.926 24.4671 104.179 24.3143C104.432 24.1619 104.73 24.0853 105.072 24.0853C105.36 24.0853 105.613 24.1374 105.832 24.2416C106.051 24.3453 106.232 24.4774 106.376 24.6368C106.52 24.7965 106.626 24.9734 106.694 25.1676C106.763 25.3617 106.797 25.549 106.797 25.7294C106.797 26.0205 106.715 26.305 106.551 26.5823L103.655 31.2848C103.614 31.3266 103.594 31.389 103.594 31.4725C103.594 31.5556 103.614 31.618 103.655 31.6594L106.551 36.3619C106.715 36.6258 106.797 36.9034 106.797 37.1945C106.797 37.3749 106.763 37.5622 106.694 37.7563C106.626 37.9509 106.52 38.1309 106.376 38.2975C106.232 38.4641 106.051 38.5989 105.832 38.703C105.613 38.8072 105.36 38.8593 105.072 38.8593C104.73 38.8593 104.432 38.7796 104.179 38.6199C103.926 38.4606 103.73 38.2695 103.594 38.0478L101.52 34.7182L99.4667 38.0478C99.3159 38.2695 99.1141 38.4606 98.8609 38.6199C98.6077 38.7796 98.3099 38.8593 97.9675 38.8593C97.6803 38.8593 97.4305 38.8072 97.2185 38.703C97.0061 38.5989 96.8281 38.4641 96.6845 38.2975C96.5409 38.1309 96.431 37.9509 96.3561 37.7563C96.2806 37.5622 96.2431 37.3749 96.2431 37.1945C96.2431 36.9034 96.3251 36.6258 96.4895 36.3619L99.3847 31.6594C99.4255 31.618 99.4463 31.5556 99.4463 31.4725C99.4463 31.389 99.4255 31.3266 99.3847 31.2848L96.4895 26.5823C96.3251 26.305 96.2431 26.0205 96.2431 25.7294C96.2431 25.549 96.2806 25.3617 96.3561 25.1676C96.431 24.9734 96.5409 24.7965 96.6845 24.6368C96.8281 24.4774 97.0061 24.3453 97.2185 24.2416C97.4305 24.1374 97.6803 24.0853 97.9675 24.0853C98.3099 24.0853 98.6077 24.1619 98.8609 24.3143C99.1141 24.4671 99.3159 24.6544 99.4667 24.8761L101.52 28.226Z" fill="#F3773E"/>
<path d="M114.723 28.226L116.797 24.8761C116.934 24.6544 117.129 24.4671 117.382 24.3143C117.635 24.1619 117.933 24.0853 118.275 24.0853C118.563 24.0853 118.816 24.1374 119.035 24.2416C119.254 24.3453 119.435 24.4774 119.579 24.6368C119.723 24.7965 119.829 24.9734 119.897 25.1676C119.966 25.3617 120 25.549 120 25.7294C120 26.0205 119.918 26.305 119.753 26.5823L116.859 31.2848C116.818 31.3266 116.797 31.389 116.797 31.4725C116.797 31.5556 116.818 31.618 116.859 31.6594L119.753 36.3619C119.918 36.6258 120 36.9034 120 37.1945C120 37.3749 119.966 37.5622 119.897 37.7563C119.829 37.9509 119.723 38.1309 119.579 38.2975C119.435 38.4641 119.254 38.5989 119.035 38.703C118.816 38.8072 118.563 38.8593 118.275 38.8593C117.933 38.8593 117.635 38.7796 117.382 38.6199C117.129 38.4606 116.934 38.2695 116.797 38.0478L114.723 34.7182L112.67 38.0478C112.519 38.2695 112.317 38.4606 112.064 38.6199C111.811 38.7796 111.513 38.8593 111.171 38.8593C110.884 38.8593 110.633 38.8072 110.422 38.703C110.209 38.5989 110.031 38.4641 109.888 38.2975C109.744 38.1309 109.634 37.9509 109.559 37.7563C109.484 37.5622 109.446 37.3749 109.446 37.1945C109.446 36.9034 109.528 36.6258 109.692 36.3619L112.588 31.6594C112.629 31.618 112.65 31.5556 112.65 31.4725C112.65 31.389 112.629 31.3266 112.588 31.2848L109.692 26.5823C109.528 26.305 109.446 26.0205 109.446 25.7294C109.446 25.549 109.484 25.3617 109.559 25.1676C109.634 24.9734 109.744 24.7965 109.888 24.6368C110.031 24.4774 110.209 24.3453 110.422 24.2416C110.633 24.1374 110.884 24.0853 111.171 24.0853C111.513 24.0853 111.811 24.1619 112.064 24.3143C112.317 24.4671 112.519 24.6544 112.67 24.8761L114.723 28.226Z" fill="#F3773E"/>
<path d="M57.2253 49V40.1208L53.8177 36.6675V45.5467L57.2253 49Z" fill="#F3773E"/>
<path d="M61.3468 23.8459C58.2562 23.8459 55.5965 25.7421 54.4352 28.4459L57.2385 31.2868C57.3406 29.0766 59.1413 27.3095 61.3468 27.3095C63.6176 27.3095 65.4648 29.1816 65.4648 31.4828C65.4648 33.7838 63.6176 35.6561 61.3468 35.6561C60.1227 35.6561 59.0253 35.1092 58.2702 34.2471L53.8177 29.7353V34.619L56.3822 37.2175C57.709 38.3997 59.4455 39.1197 61.3468 39.1197C65.5019 39.1197 68.8826 35.6936 68.8826 31.4828C68.8826 27.2717 65.5019 23.8459 61.3468 23.8459Z" fill="#F3773E"/>
<path d="M44.89 35.6561C42.6192 35.6561 40.772 33.7838 40.772 31.4828C40.772 29.1816 42.6192 27.3095 44.89 27.3095C46.0321 27.3095 47.0664 27.7837 47.8128 28.547L47.8196 28.5404L53.8177 34.619V29.7349L50.2291 26.0982L50.2287 26.0986C48.8634 24.7084 46.9742 23.8459 44.89 23.8459C40.735 23.8459 37.3542 27.272 37.3542 31.4828C37.3542 35.694 40.735 39.1193 44.89 39.1193C47.9881 39.1193 50.6539 37.2144 51.8107 34.4999L48.9998 31.6513C48.9114 33.8741 47.1046 35.6561 44.89 35.6561Z" fill="#414041"/>
</svg>
