<svg width="20" height="20" viewBox="0 0 20 20" fill="none" xmlns="http://www.w3.org/2000/svg">
<mask id="mask0" mask-type="alpha" maskUnits="userSpaceOnUse" x="3" y="1" width="14" height="18">
<path fill-rule="evenodd" clip-rule="evenodd" d="M7.17773 14.8707C7.79311 15.7473 8.51413 16.7745 9.35768 17.9974C9.66803 18.4457 10.3319 18.4458 10.6423 17.9974C11.4859 16.7745 12.2069 15.7473 12.8223 14.8707C15.6573 10.8319 16.25 9.98751 16.25 7.91699C16.25 4.4652 13.4518 1.66699 10 1.66699C6.54821 1.66699 3.75 4.4652 3.75 7.91699C3.75 9.98751 4.3427 10.8319 7.17773 14.8707ZM12.6041 7.91698C12.6041 9.35523 11.4382 10.5212 9.99996 10.5212C8.56171 10.5212 7.39579 9.35523 7.39579 7.91698C7.39579 6.47874 8.56171 5.31282 9.99996 5.31282C11.4382 5.31282 12.6041 6.47874 12.6041 7.91698Z" fill="white"/>
</mask>
<g mask="url(#mask0)">
<rect width="20" height="20" fill="#FFD362"/>
</g>
</svg>
