<svg width="16" height="16" viewBox="0 0 16 16" fill="none" xmlns="http://www.w3.org/2000/svg">
<path d="M16 8C16 3.58171 12.4183 0 8 0C3.58171 0 0 3.58171 0 8C0 12.4183 3.58171 16 8 16H16V14.6667H12.4167C14.6533 13.1859 15.999 10.6826 16 8ZM11.9186 13.3936C11.0251 14.0426 9.77409 13.8447 9.125 12.9508C8.47591 12.0573 8.67383 10.8066 9.56738 10.1572C10.4613 9.50814 11.7119 9.70605 12.361 10.5999C13.0104 11.4935 12.8122 12.7441 11.9186 13.3936ZM11.8203 4.65592C12.8708 4.31445 13.999 4.88932 14.3405 5.93978C14.6816 6.99056 14.1068 8.11882 13.0563 8.45996C12.0059 8.80143 10.8776 8.22656 10.5361 7.17611C10.195 6.12565 10.7699 4.99707 11.8203 4.65592ZM8 1.33333C9.10449 1.33333 10 2.22884 10 3.33333C10 4.43783 9.10449 5.33333 8 5.33333C6.89551 5.33333 6 4.43783 6 3.33333C6 2.22884 6.89551 1.33333 8 1.33333ZM1.65951 5.93978C2.00098 4.88932 3.12923 4.31445 4.17969 4.6556C5.23014 4.99707 5.80501 6.12533 5.46387 7.17578C5.1224 8.22624 3.99414 8.80111 2.94369 8.45996C1.89323 8.11882 1.31836 6.99056 1.65951 5.93978ZM6.875 12.9508C6.22591 13.8447 4.97494 14.0426 4.08138 13.3936C3.18783 12.7441 2.98958 11.4935 3.639 10.5999C4.28809 9.70638 5.53906 9.50814 6.43262 10.1576C7.32617 10.8066 7.52409 12.0573 6.875 12.9508ZM7.33333 8C7.33333 7.63184 7.63184 7.33333 8 7.33333C8.36816 7.33333 8.66667 7.63184 8.66667 8C8.66667 8.36816 8.36816 8.66667 8 8.66667C7.63184 8.66667 7.33333 8.36816 7.33333 8Z" fill="#FFC224"/>
</svg>
